<?xml version="1.0" encoding="UTF-8" standalone="no"?>
<svg width="25px" height="25px" viewBox="0 0 25 25" version="1.1" xmlns="http://www.w3.org/2000/svg" xmlns:xlink="http://www.w3.org/1999/xlink">
    <!-- Generator: Sketch 3.8.3 (29802) - http://www.bohemiancoding.com/sketch -->
    <title>lumpy_squares</title>
    <desc>Created with Sketch.</desc>
    <defs></defs>
    <g stroke="none" stroke-width="1" fill="none" fill-rule="evenodd">
        <g stroke="#979797">
            <path d="M8.00417376,12 C10.2110077,12 12,13.7965212 12,15.9958262 L12,20.0041738 C12,22.2110077 10.2034788,24 8.00417376,24 L3.99582624,24 C1.78899235,24 0,22.2034788 0,20.0041738 L1.77635684e-15,15.9958262 C1.77635684e-15,13.7889923 1.79652125,12 3.99582624,12 L8.00417376,12 Z M20.0041738,-1.77635684e-15 C22.2110077,-1.77635684e-15 24,1.79652125 24,3.99582624 L24,8.00417376 C24,10.2110077 22.2034788,12 20.0041738,12 L15.9958262,12 C13.7889923,12 12,10.2034788 12,8.00417376 L12,3.99582624 C12,1.78899235 13.7965212,-3.55271368e-15 15.9958262,-3.55271368e-15 L20.0041738,-1.77635684e-15 Z M20.0018986,14 C21.1054196,14 22,14.8867064 22,15.9981014 L22,20.0018986 C22,21.1054196 21.1132936,22 20.0018986,22 L15.9981014,22 C14.8945804,22 14,21.1132936 14,20.0018986 L14,15.9981014 C14,14.8945804 14.8867064,14 15.9981014,14 L20.0018986,14 Z M10,3.99810135 L10,8.00189865 C10,9.10541955 9.11329365,10 8.00189865,10 L3.99810135,10 C2.89458045,10 2,9.11329365 2,8.00189865 L2,3.99810135 C2,2.89458045 2.88670635,2 3.99810135,2 L8.00189865,2 C9.10541955,2 10,2.88670635 10,3.99810135 Z"></path>
        </g>
    </g>
</svg>