<?xml version="1.0" encoding="UTF-8" standalone="no"?>
<svg width="25px" height="25px" viewBox="0 0 25 25" version="1.1" xmlns="http://www.w3.org/2000/svg" xmlns:xlink="http://www.w3.org/1999/xlink">
    <!-- Generator: Sketch 3.8.3 (29802) - http://www.bohemiancoding.com/sketch -->
    <title>lumpy_donuts</title>
    <desc>Created with Sketch.</desc>
    <defs></defs>
    <g stroke="none" stroke-width="1" fill="none" fill-rule="evenodd">
        <g stroke="#979797">
            <path d="M10,3.99810135 L10,8.00189865 C10,9.10541955 9.11329365,10 8.00189865,10 L3.99810135,10 C2.89458045,10 2,9.11329365 2,8.00189865 L2,3.99810135 C2,2.89458045 2.88670635,2 3.99810135,2 L8.00189865,2 C9.10541955,2 10,2.88670635 10,3.99810135 Z M20.0018986,14 C21.1054196,14 22,14.8867064 22,15.9981014 L22,20.0018986 C22,21.1054196 21.1132936,22 20.0018986,22 L15.9981014,22 C14.8945804,22 14,21.1132936 14,20.0018986 L14,15.9981014 C14,14.8945804 14.8867064,14 15.9981014,14 L20.0018986,14 Z M20.0041738,1.77635684e-15 C22.2110077,1.77635684e-15 24,1.79652125 24,3.99582624 L24,8.00417376 C24,10.2110077 22.2034788,12 20.0041738,12 L15.9958262,12 C13.7889923,12 12,10.2034788 12,8.00417376 L12,3.99582624 C12,1.78899235 13.7965212,0 15.9958262,0 L20.0041738,1.77635684e-15 Z M8.00417376,12 C10.2110077,12 12,13.7965212 12,15.9958262 L12,20.0041738 C12,22.2110077 10.2034788,24 8.00417376,24 L3.99582624,24 C1.78899235,24 0,22.2034788 0,20.0041738 L1.77635684e-15,15.9958262 C1.77635684e-15,13.7889923 1.79652125,12 3.99582624,12 L8.00417376,12 Z M9,16.498576 L9,19.501424 C9,20.3290647 8.33497024,21 7.50142398,21 L4.49857602,21 C3.67093534,21 3,20.3349702 3,19.501424 L3,16.498576 C3,15.6709353 3.66502976,15 4.49857602,15 L7.50142398,15 C8.32906466,15 9,15.6650298 9,16.498576 Z M21,4.49857602 L21,7.50142398 C21,8.32906466 20.3349702,9 19.501424,9 L16.498576,9 C15.6709353,9 15,8.33497024 15,7.50142398 L15,4.49857602 C15,3.67093534 15.6650298,3 16.498576,3 L19.501424,3 C20.3290647,3 21,3.66502976 21,4.49857602 Z M7,5.49952534 L7,6.50047466 C7,6.77635489 6.77832341,7 6.50047466,7 L5.49952534,7 C5.22364511,7 5,6.77832341 5,6.50047466 L5,5.49952534 C5,5.22364511 5.22167659,5 5.49952534,5 L6.50047466,5 C6.77635489,5 7,5.22167659 7,5.49952534 Z M19,17.4995253 L19,18.5004747 C19,18.7763549 18.7783234,19 18.5004747,19 L17.4995253,19 C17.2236451,19 17,18.7783234 17,18.5004747 L17,17.4995253 C17,17.2236451 17.2216766,17 17.4995253,17 L18.5004747,17 C18.7763549,17 19,17.2216766 19,17.4995253 Z"></path>
        </g>
    </g>
</svg>